<svg xmlns="http://www.w3.org/2000/svg" width="128" height="128" viewBox="0 0 256 256" role="img" aria-label="Robot avatar"><defs><clipPath id="avatar-frame"><rect width="256" height="256" rx="0"/></clipPath></defs><g clip-path="url(#avatar-frame)"><svg x="20.48" y="20.48" xmlns="http://www.w3.org/2000/svg" width="215.04" height="215.04" viewBox="-16 -48 272 320" role="img" aria-label="Robot avatar"><defs><clipPath id="avatar-head-clip"><path d="M 120.000 30.000 L 123.536 30.015 L 127.077 30.076 L 130.629 30.198 L 134.193 30.391 L 137.770 30.664 L 141.361 31.026 L 144.964 31.485 L 148.577 32.049 L 152.197 32.726 L 155.820 33.523 L 159.440 34.449 L 163.050 35.511 L 166.642 36.715 L 170.208 38.069 L 173.737 39.578 L 177.217 41.247 L 180.638 43.081 L 183.985 45.083 L 187.246 47.254 L 190.406 49.594 L 193.452 52.102 L 196.370 54.774 L 199.148 57.605 L 201.772 60.589 L 204.233 63.717 L 206.522 66.979 L 208.630 70.365 L 210.553 73.861 L 212.286 77.455 L 213.830 81.134 L 215.184 84.885 L 216.353 88.693 L 217.339 92.547 L 218.152 96.436 L 218.799 100.348 L 219.291 104.274 L 219.640 108.207 L 219.862 112.141 L 219.973 116.072 L 220.000 120.000 L 219.973 123.928 L 219.862 127.859 L 219.640 131.793 L 219.291 135.726 L 218.799 139.652 L 218.152 143.564 L 217.339 147.453 L 216.353 151.307 L 215.184 155.115 L 213.830 158.866 L 212.286 162.545 L 210.553 166.139 L 208.630 169.635 L 206.522 173.021 L 204.233 176.283 L 201.772 179.411 L 199.148 182.395 L 196.370 185.226 L 193.452 187.898 L 190.406 190.406 L 187.246 192.746 L 183.985 194.917 L 180.638 196.919 L 177.217 198.753 L 173.737 200.422 L 170.208 201.931 L 166.642 203.285 L 163.050 204.489 L 159.440 205.551 L 155.820 206.477 L 152.197 207.274 L 148.577 207.951 L 144.964 208.515 L 141.361 208.974 L 137.770 209.336 L 134.193 209.609 L 130.629 209.802 L 127.077 209.924 L 123.536 209.985 L 120.000 210.000 L 116.464 209.985 L 112.923 209.924 L 109.371 209.802 L 105.807 209.609 L 102.230 209.336 L 98.639 208.974 L 95.036 208.515 L 91.423 207.951 L 87.803 207.274 L 84.180 206.477 L 80.560 205.551 L 76.950 204.489 L 73.358 203.285 L 69.792 201.931 L 66.263 200.422 L 62.783 198.753 L 59.362 196.919 L 56.015 194.917 L 52.754 192.746 L 49.594 190.406 L 46.548 187.898 L 43.630 185.226 L 40.852 182.395 L 38.228 179.411 L 35.767 176.283 L 33.478 173.021 L 31.370 169.635 L 29.447 166.139 L 27.714 162.545 L 26.170 158.866 L 24.816 155.115 L 23.647 151.307 L 22.661 147.453 L 21.848 143.564 L 21.201 139.652 L 20.709 135.726 L 20.360 131.793 L 20.138 127.859 L 20.027 123.928 L 20.000 120.000 L 20.027 116.072 L 20.138 112.141 L 20.360 108.207 L 20.709 104.274 L 21.201 100.348 L 21.848 96.436 L 22.661 92.547 L 23.647 88.693 L 24.816 84.885 L 26.170 81.134 L 27.714 77.455 L 29.447 73.861 L 31.370 70.365 L 33.478 66.979 L 35.767 63.717 L 38.228 60.589 L 40.852 57.605 L 43.630 54.774 L 46.548 52.102 L 49.594 49.594 L 52.754 47.254 L 56.015 45.083 L 59.362 43.081 L 62.783 41.247 L 66.263 39.578 L 69.792 38.069 L 73.358 36.715 L 76.950 35.511 L 80.560 34.449 L 84.180 33.523 L 87.803 32.726 L 91.423 32.049 L 95.036 31.485 L 98.639 31.026 L 102.230 30.664 L 105.807 30.391 L 109.371 30.198 L 112.923 30.076 L 116.464 30.015 Z" transform="translate(7.2 7.2) scale(.94)"/></clipPath></defs><path d="M 120.000 30.000 L 123.536 30.015 L 127.077 30.076 L 130.629 30.198 L 134.193 30.391 L 137.770 30.664 L 141.361 31.026 L 144.964 31.485 L 148.577 32.049 L 152.197 32.726 L 155.820 33.523 L 159.440 34.449 L 163.050 35.511 L 166.642 36.715 L 170.208 38.069 L 173.737 39.578 L 177.217 41.247 L 180.638 43.081 L 183.985 45.083 L 187.246 47.254 L 190.406 49.594 L 193.452 52.102 L 196.370 54.774 L 199.148 57.605 L 201.772 60.589 L 204.233 63.717 L 206.522 66.979 L 208.630 70.365 L 210.553 73.861 L 212.286 77.455 L 213.830 81.134 L 215.184 84.885 L 216.353 88.693 L 217.339 92.547 L 218.152 96.436 L 218.799 100.348 L 219.291 104.274 L 219.640 108.207 L 219.862 112.141 L 219.973 116.072 L 220.000 120.000 L 219.973 123.928 L 219.862 127.859 L 219.640 131.793 L 219.291 135.726 L 218.799 139.652 L 218.152 143.564 L 217.339 147.453 L 216.353 151.307 L 215.184 155.115 L 213.830 158.866 L 212.286 162.545 L 210.553 166.139 L 208.630 169.635 L 206.522 173.021 L 204.233 176.283 L 201.772 179.411 L 199.148 182.395 L 196.370 185.226 L 193.452 187.898 L 190.406 190.406 L 187.246 192.746 L 183.985 194.917 L 180.638 196.919 L 177.217 198.753 L 173.737 200.422 L 170.208 201.931 L 166.642 203.285 L 163.050 204.489 L 159.440 205.551 L 155.820 206.477 L 152.197 207.274 L 148.577 207.951 L 144.964 208.515 L 141.361 208.974 L 137.770 209.336 L 134.193 209.609 L 130.629 209.802 L 127.077 209.924 L 123.536 209.985 L 120.000 210.000 L 116.464 209.985 L 112.923 209.924 L 109.371 209.802 L 105.807 209.609 L 102.230 209.336 L 98.639 208.974 L 95.036 208.515 L 91.423 207.951 L 87.803 207.274 L 84.180 206.477 L 80.560 205.551 L 76.950 204.489 L 73.358 203.285 L 69.792 201.931 L 66.263 200.422 L 62.783 198.753 L 59.362 196.919 L 56.015 194.917 L 52.754 192.746 L 49.594 190.406 L 46.548 187.898 L 43.630 185.226 L 40.852 182.395 L 38.228 179.411 L 35.767 176.283 L 33.478 173.021 L 31.370 169.635 L 29.447 166.139 L 27.714 162.545 L 26.170 158.866 L 24.816 155.115 L 23.647 151.307 L 22.661 147.453 L 21.848 143.564 L 21.201 139.652 L 20.709 135.726 L 20.360 131.793 L 20.138 127.859 L 20.027 123.928 L 20.000 120.000 L 20.027 116.072 L 20.138 112.141 L 20.360 108.207 L 20.709 104.274 L 21.201 100.348 L 21.848 96.436 L 22.661 92.547 L 23.647 88.693 L 24.816 84.885 L 26.170 81.134 L 27.714 77.455 L 29.447 73.861 L 31.370 70.365 L 33.478 66.979 L 35.767 63.717 L 38.228 60.589 L 40.852 57.605 L 43.630 54.774 L 46.548 52.102 L 49.594 49.594 L 52.754 47.254 L 56.015 45.083 L 59.362 43.081 L 62.783 41.247 L 66.263 39.578 L 69.792 38.069 L 73.358 36.715 L 76.950 35.511 L 80.560 34.449 L 84.180 33.523 L 87.803 32.726 L 91.423 32.049 L 95.036 31.485 L 98.639 31.026 L 102.230 30.664 L 105.807 30.391 L 109.371 30.198 L 112.923 30.076 L 116.464 30.015 Z" fill="#d6a178" transform="translate(7.2 7.2) scale(.94)"/><g clip-path="url(#avatar-head-clip)"><ellipse cx="86" cy="126" rx="27" ry="3" fill="#352a32"/><ellipse cx="154" cy="126" rx="27" ry="3" fill="#352a32"/></g><path d="M47.5130978028965 58.4 Q54.999999999999986 0.3999999999999986 119.99999999999999 5.399999999999999 Q185 0.3999999999999986 192.4869021971035 58.4 L189.04 56.18 L 186.18 53.82 L 183.21 51.62 L 180.15 49.58 L 177.00 47.70 L 173.78 45.97 L 170.51 44.40 L 167.20 42.98 L 163.84 41.71 L 160.47 40.58 L 157.07 39.58 L 153.67 38.71 L 150.27 37.96 L 146.86 37.33 L 143.47 36.80 L 140.08 36.36 L 136.70 36.02 L 133.34 35.77 L 129.99 35.59 L 126.65 35.47 L 123.32 35.41 L 120.00 35.40 L 116.68 35.41 L 113.35 35.47 L 110.01 35.59 L 106.66 35.77 L 103.30 36.02 L 99.92 36.36 L 96.53 36.80 L 93.14 37.33 L 89.73 37.96 L 86.33 38.71 L 82.93 39.58 L 79.53 40.58 L 76.16 41.71 L 72.80 42.98 L 69.49 44.40 L 66.22 45.97 L 63.00 47.70 L 59.85 49.58 L 56.79 51.62 L 53.82 53.82 L 50.96 56.18 Z" fill="#93b8cf"/><path d="M50.96 56.18 L 53.82 53.82 L 56.79 51.62 L 59.85 49.58 L 63.00 47.70 L 66.22 45.97 L 69.49 44.40 L 72.80 42.98 L 76.16 41.71 L 79.53 40.58 L 82.93 39.58 L 86.33 38.71 L 89.73 37.96 L 93.14 37.33 L 96.53 36.80 L 99.92 36.36 L 103.30 36.02 L 106.66 35.77 L 110.01 35.59 L 113.35 35.47 L 116.68 35.41 L 120.00 35.40 L 123.32 35.41 L 126.65 35.47 L 129.99 35.59 L 133.34 35.77 L 136.70 36.02 L 140.08 36.36 L 143.47 36.80 L 146.86 37.33 L 150.27 37.96 L 153.67 38.71 L 157.07 39.58 L 160.47 40.58 L 163.84 41.71 L 167.20 42.98 L 170.51 44.40 L 173.78 45.97 L 177.00 47.70 L 180.15 49.58 L 183.21 51.62 L 186.18 53.82 L 189.04 56.18" fill="none" stroke="#93b8cf" stroke-width="12"/><circle cx="119.99999999999999" cy="2.3999999999999986" r="12" fill="#93b8cf"/></svg></g></svg>